<svg xmlns="http://www.w3.org/2000/svg" width="195" height="49" viewBox="0 0 195 49" fill="none"><path d="M19.12 48.24C17.06 48.24 15.12 47.85 13.31 47.07C11.5 46.29 9.91 45.22 8.54 43.85C7.18 42.49 6.1 40.9 5.32 39.08C4.54 37.26 4.15 35.33 4.15 33.27V23.33H0V14.83H4.16V1.46H12.66V14.83H23.6V23.33H12.66V33.27C12.66 34.17 12.83 35 13.16 35.79C13.49 36.57 13.95 37.25 14.54 37.84C15.12 38.42 15.81 38.89 16.6 39.23C17.39 39.57 18.24 39.75 19.13 39.75H23.6V48.25H19.13L19.12 48.24ZM36.9 48.24H28.37V14.77L33.25 18.74C34.63 17.49 36.19 16.53 37.94 15.85C39.69 15.17 41.5 14.83 43.38 14.83H50.91V23.33H43.38C42.48 23.33 41.64 23.5 40.85 23.83C40.06 24.16 39.37 24.62 38.79 25.21C38.21 25.79 37.75 26.48 37.41 27.27C37.08 28.06 36.91 28.91 36.91 29.8V48.24H36.9ZM64.94 5.68C64.94 6.47 64.79 7.21 64.49 7.9C64.19 8.59 63.78 9.19 63.26 9.7C62.74 10.21 62.13 10.62 61.43 10.92C60.73 11.22 59.99 11.37 59.2 11.37C58.41 11.37 57.66 11.22 56.97 10.92C56.27 10.62 55.67 10.21 55.16 9.7C54.65 9.19 54.24 8.59 53.94 7.9C53.64 7.21 53.49 6.47 53.49 5.68C53.49 4.89 53.64 4.18 53.94 3.48C54.24 2.78 54.65 2.18 55.16 1.67C55.67 1.16 56.27 0.75 56.97 0.45C57.67 0.15 58.41 0 59.2 0C59.99 0 60.74 0.15 61.43 0.45C62.13 0.75 62.74 1.16 63.26 1.67C63.78 2.18 64.19 2.78 64.49 3.48C64.79 4.18 64.94 4.91 64.94 5.68ZM63.47 48.24H54.88V14.77H63.47V48.24ZM78.5 48.24H69.97V14.77L74.85 18.02C76.23 16.77 77.78 15.81 79.52 15.13C81.26 14.45 83.08 14.11 84.97 14.11C87.01 14.11 88.94 14.5 90.75 15.28C92.56 16.06 94.15 17.13 95.5 18.5C96.85 19.86 97.92 21.46 98.7 23.28C99.48 25.1 99.87 27.05 99.87 29.11V48.23H91.34V29.11C91.34 28.23 91.17 27.41 90.84 26.63C90.51 25.85 90.05 25.17 89.46 24.58C88.88 24 88.2 23.54 87.43 23.2C86.66 22.87 85.84 22.7 84.96 22.7C84.08 22.7 83.22 22.87 82.43 23.2C81.64 23.53 80.95 23.99 80.37 24.58C79.79 25.17 79.33 25.85 78.99 26.63C78.66 27.41 78.49 28.24 78.49 29.11V48.23L78.5 48.24ZM114.53 48.24H105.94V1.46H114.53V30.96L127.25 14.84H137.06L125.97 28.78L137.06 48.25H127.25L120.47 36.09L114.53 43.97V48.25V48.24ZM152.72 40.05C153.05 40.15 153.39 40.22 153.72 40.25C154.05 40.28 154.39 40.3 154.72 40.3C155.55 40.3 156.36 40.19 157.13 39.96C157.9 39.73 158.63 39.42 159.3 38.98C160.247 38.3533 161.443 37.3133 162.89 35.86L168.66 41.65C167.87 42.77 166.96 43.79 165.93 44.68C164.9 45.58 163.78 46.34 162.59 46.96C161.39 47.58 160.13 48.06 158.81 48.38C157.49 48.7 156.13 48.86 154.73 48.86C152.38 48.86 150.16 48.42 148.09 47.55C146.02 46.67 144.2 45.46 142.65 43.89C141.1 42.33 139.87 40.47 138.98 38.31C138.08 36.15 137.64 33.78 137.64 31.2C137.64 28.62 138.09 26.14 138.98 23.95C139.88 21.76 141.1 19.9 142.65 18.36C144.2 16.82 146.01 15.62 148.09 14.77C150.16 13.92 152.38 13.49 154.73 13.49C156.13 13.49 157.49 13.66 158.82 13.99C160.15 14.32 161.42 14.8 162.62 15.43C163.82 16.05 164.94 16.82 165.98 17.73C167.02 18.64 167.94 19.65 168.73 20.78L152.73 40.06L152.72 40.05ZM157.1 22.46C156.7 22.31 156.31 22.22 155.93 22.18C155.54 22.14 155.14 22.12 154.73 22.12C153.56 22.12 152.46 22.33 151.43 22.76C150.4 23.19 149.5 23.8 148.74 24.59C147.98 25.38 147.38 26.34 146.94 27.45C146.5 28.57 146.28 29.82 146.28 31.22C146.28 31.53 146.3 31.89 146.33 32.28C146.36 32.68 146.41 33.08 146.49 33.48C146.56 33.89 146.65 34.28 146.76 34.65C146.86 35.03 147 35.36 147.17 35.65L157.11 22.46H157.1ZM189.79 48.24C187.73 48.24 185.79 47.85 183.98 47.07C182.17 46.29 180.58 45.22 179.21 43.85C177.85 42.49 176.77 40.9 175.99 39.08C175.21 37.26 174.82 35.33 174.82 33.27V23.33H170.66V14.83H174.82V1.46H183.32V14.83H194.26V23.33H183.32V33.27C183.32 34.17 183.49 35 183.82 35.79C184.15 36.57 184.61 37.25 185.19 37.84C185.77 38.42 186.46 38.89 187.25 39.23C188.04 39.57 188.89 39.75 189.78 39.75H194.25V48.25H189.78L189.79 48.24Z" fill="white"></path><path d="M19.12 48.24C17.06 48.24 15.12 47.85 13.31 47.07C11.5 46.29 9.91 45.22 8.54 43.85C7.18 42.49 6.1 40.9 5.32 39.08C4.54 37.26 4.15 35.33 4.15 33.27V23.33H0V14.83H4.16V1.46H12.66V14.83H23.6V23.33H12.66V33.27C12.66 34.17 12.83 35 13.16 35.79C13.49 36.57 13.95 37.25 14.54 37.84C15.12 38.42 15.81 38.89 16.6 39.23C17.39 39.57 18.24 39.75 19.13 39.75H23.6V48.25H19.13L19.12 48.24ZM36.9 48.24H28.37V14.77L33.25 18.74C34.63 17.49 36.19 16.53 37.94 15.85C39.69 15.17 41.5 14.83 43.38 14.83H50.91V23.33H43.38C42.48 23.33 41.64 23.5 40.85 23.83C40.06 24.16 39.37 24.62 38.79 25.21C38.21 25.79 37.75 26.48 37.41 27.27C37.08 28.06 36.91 28.91 36.91 29.8V48.24H36.9ZM64.94 5.68C64.94 6.47 64.79 7.21 64.49 7.9C64.19 8.59 63.78 9.19 63.26 9.7C62.74 10.21 62.13 10.62 61.43 10.92C60.73 11.22 59.99 11.37 59.2 11.37C58.41 11.37 57.66 11.22 56.97 10.92C56.27 10.62 55.67 10.21 55.16 9.7C54.65 9.19 54.24 8.59 53.94 7.9C53.64 7.21 53.49 6.47 53.49 5.68C53.49 4.89 53.64 4.18 53.94 3.48C54.24 2.78 54.65 2.18 55.16 1.67C55.67 1.16 56.27 0.75 56.97 0.45C57.67 0.15 58.41 0 59.2 0C59.99 0 60.74 0.15 61.43 0.45C62.13 0.75 62.74 1.16 63.26 1.67C63.78 2.18 64.19 2.78 64.49 3.48C64.79 4.18 64.94 4.91 64.94 5.68ZM63.47 48.24H54.88V14.77H63.47V48.24ZM78.5 48.24H69.97V14.77L74.85 18.02C76.23 16.77 77.78 15.81 79.52 15.13C81.26 14.45 83.08 14.11 84.97 14.11C87.01 14.11 88.94 14.5 90.75 15.28C92.56 16.06 94.15 17.13 95.5 18.5C96.85 19.86 97.92 21.46 98.7 23.28C99.48 25.1 99.87 27.05 99.87 29.11V48.23H91.34V29.11C91.34 28.23 91.17 27.41 90.84 26.63C90.51 25.85 90.05 25.17 89.46 24.58C88.88 24 88.2 23.54 87.43 23.2C86.66 22.87 85.84 22.7 84.96 22.7C84.08 22.7 83.22 22.87 82.43 23.2C81.64 23.53 80.95 23.99 80.37 24.58C79.79 25.17 79.33 25.85 78.99 26.63C78.66 27.41 78.49 28.24 78.49 29.11V48.23L78.5 48.24ZM114.53 48.24H105.94V1.46H114.53V30.96L127.25 14.84H137.06L125.97 28.78L137.06 48.25H127.25L120.47 36.09L114.53 43.97V48.25V48.24ZM152.72 40.05C153.05 40.15 153.39 40.22 153.72 40.25C154.05 40.28 154.39 40.3 154.72 40.3C155.55 40.3 156.36 40.19 157.13 39.96C157.9 39.73 158.63 39.42 159.3 38.98C160.247 38.3533 161.443 37.3133 162.89 35.86L168.66 41.65C167.87 42.77 166.96 43.79 165.93 44.68C164.9 45.58 163.78 46.34 162.59 46.96C161.39 47.58 160.13 48.06 158.81 48.38C157.49 48.7 156.13 48.86 154.73 48.86C152.38 48.86 150.16 48.42 148.09 47.55C146.02 46.67 144.2 45.46 142.65 43.89C141.1 42.33 139.87 40.47 138.98 38.31C138.08 36.15 137.64 33.78 137.64 31.2C137.64 28.62 138.09 26.14 138.98 23.95C139.88 21.76 141.1 19.9 142.65 18.36C144.2 16.82 146.01 15.62 148.09 14.77C150.16 13.92 152.38 13.49 154.73 13.49C156.13 13.49 157.49 13.66 158.82 13.99C160.15 14.32 161.42 14.8 162.62 15.43C163.82 16.05 164.94 16.82 165.98 17.73C167.02 18.64 167.94 19.65 168.73 20.78L152.73 40.06L152.72 40.05ZM157.1 22.46C156.7 22.31 156.31 22.22 155.93 22.18C155.54 22.14 155.14 22.12 154.73 22.12C153.56 22.12 152.46 22.33 151.43 22.76C150.4 23.19 149.5 23.8 148.74 24.59C147.98 25.38 147.38 26.34 146.94 27.45C146.5 28.57 146.28 29.82 146.28 31.22C146.28 31.53 146.3 31.89 146.33 32.28C146.36 32.68 146.41 33.08 146.49 33.48C146.56 33.89 146.65 34.28 146.76 34.65C146.86 35.03 147 35.36 147.17 35.65L157.11 22.46H157.1ZM189.79 48.24C187.73 48.24 185.79 47.85 183.98 47.07C182.17 46.29 180.58 45.22 179.21 43.85C177.85 42.49 176.77 40.9 175.99 39.08C175.21 37.26 174.82 35.33 174.82 33.27V23.33H170.66V14.83H174.82V1.46H183.32V14.83H194.26V23.33H183.32V33.27C183.32 34.17 183.49 35 183.82 35.79C184.15 36.57 184.61 37.25 185.19 37.84C185.77 38.42 186.46 38.89 187.25 39.23C188.04 39.57 188.89 39.75 189.78 39.75H194.25V48.25H189.78L189.79 48.24Z" fill="url(#paint0_linear_42_1602)"></path><path d="M19.12 48.24C17.06 48.24 15.12 47.85 13.31 47.07C11.5 46.29 9.91 45.22 8.54 43.85C7.18 42.49 6.1 40.9 5.32 39.08C4.54 37.26 4.15 35.33 4.15 33.27V23.33H0V14.83H4.16V1.46H12.66V14.83H23.6V23.33H12.66V33.27C12.66 34.17 12.83 35 13.16 35.79C13.49 36.57 13.95 37.25 14.54 37.84C15.12 38.42 15.81 38.89 16.6 39.23C17.39 39.57 18.24 39.75 19.13 39.75H23.6V48.25H19.13L19.12 48.24ZM36.9 48.24H28.37V14.77L33.25 18.74C34.63 17.49 36.19 16.53 37.94 15.85C39.69 15.17 41.5 14.83 43.38 14.83H50.91V23.33H43.38C42.48 23.33 41.64 23.5 40.85 23.83C40.06 24.16 39.37 24.62 38.79 25.21C38.21 25.79 37.75 26.48 37.41 27.27C37.08 28.06 36.91 28.91 36.91 29.8V48.24H36.9ZM64.94 5.68C64.94 6.47 64.79 7.21 64.49 7.9C64.19 8.59 63.78 9.19 63.26 9.7C62.74 10.21 62.13 10.62 61.43 10.92C60.73 11.22 59.99 11.37 59.2 11.37C58.41 11.37 57.66 11.22 56.97 10.92C56.27 10.62 55.67 10.21 55.16 9.7C54.65 9.19 54.24 8.59 53.94 7.9C53.64 7.21 53.49 6.47 53.49 5.68C53.49 4.89 53.64 4.18 53.94 3.48C54.24 2.78 54.65 2.18 55.16 1.67C55.67 1.16 56.27 0.75 56.97 0.45C57.67 0.15 58.41 0 59.2 0C59.99 0 60.74 0.15 61.43 0.45C62.13 0.75 62.74 1.16 63.26 1.67C63.78 2.18 64.19 2.78 64.49 3.48C64.79 4.18 64.94 4.91 64.94 5.68ZM63.47 48.24H54.88V14.77H63.47V48.24ZM78.5 48.24H69.97V14.77L74.85 18.02C76.23 16.77 77.78 15.81 79.52 15.13C81.26 14.45 83.08 14.11 84.97 14.11C87.01 14.11 88.94 14.5 90.75 15.28C92.56 16.06 94.15 17.13 95.5 18.5C96.85 19.86 97.92 21.46 98.7 23.28C99.48 25.1 99.87 27.05 99.87 29.11V48.23H91.34V29.11C91.34 28.23 91.17 27.41 90.84 26.63C90.51 25.85 90.05 25.17 89.46 24.58C88.88 24 88.2 23.54 87.43 23.2C86.66 22.87 85.84 22.7 84.96 22.7C84.08 22.7 83.22 22.87 82.43 23.2C81.64 23.53 80.95 23.99 80.37 24.58C79.79 25.17 79.33 25.85 78.99 26.63C78.66 27.41 78.49 28.24 78.49 29.11V48.23L78.5 48.24ZM114.53 48.24H105.94V1.46H114.53V30.96L127.25 14.84H137.06L125.97 28.78L137.06 48.25H127.25L120.47 36.09L114.53 43.97V48.25V48.24ZM152.72 40.05C153.05 40.15 153.39 40.22 153.72 40.25C154.05 40.28 154.39 40.3 154.72 40.3C155.55 40.3 156.36 40.19 157.13 39.96C157.9 39.73 158.63 39.42 159.3 38.98C160.247 38.3533 161.443 37.3133 162.89 35.86L168.66 41.65C167.87 42.77 166.96 43.79 165.93 44.68C164.9 45.58 163.78 46.34 162.59 46.96C161.39 47.58 160.13 48.06 158.81 48.38C157.49 48.7 156.13 48.86 154.73 48.86C152.38 48.86 150.16 48.42 148.09 47.55C146.02 46.67 144.2 45.46 142.65 43.89C141.1 42.33 139.87 40.47 138.98 38.31C138.08 36.15 137.64 33.78 137.64 31.2C137.64 28.62 138.09 26.14 138.98 23.95C139.88 21.76 141.1 19.9 142.65 18.36C144.2 16.82 146.01 15.62 148.09 14.77C150.16 13.92 152.38 13.49 154.73 13.49C156.13 13.49 157.49 13.66 158.82 13.99C160.15 14.32 161.42 14.8 162.62 15.43C163.82 16.05 164.94 16.82 165.98 17.73C167.02 18.64 167.94 19.65 168.73 20.78L152.73 40.06L152.72 40.05ZM157.1 22.46C156.7 22.31 156.31 22.22 155.93 22.18C155.54 22.14 155.14 22.12 154.73 22.12C153.56 22.12 152.46 22.33 151.43 22.76C150.4 23.19 149.5 23.8 148.74 24.59C147.98 25.38 147.38 26.34 146.94 27.45C146.5 28.57 146.28 29.82 146.28 31.22C146.28 31.53 146.3 31.89 146.33 32.28C146.36 32.68 146.41 33.08 146.49 33.48C146.56 33.89 146.65 34.28 146.76 34.65C146.86 35.03 147 35.36 147.17 35.65L157.11 22.46H157.1ZM189.79 48.24C187.73 48.24 185.79 47.85 183.98 47.07C182.17 46.29 180.58 45.22 179.21 43.85C177.85 42.49 176.77 40.9 175.99 39.08C175.21 37.26 174.82 35.33 174.82 33.27V23.33H170.66V14.83H174.82V1.46H183.32V14.83H194.26V23.33H183.32V33.27C183.32 34.17 183.49 35 183.82 35.79C184.15 36.57 184.61 37.25 185.19 37.84C185.77 38.42 186.46 38.89 187.25 39.23C188.04 39.57 188.89 39.75 189.78 39.75H194.25V48.25H189.78L189.79 48.24Z" fill="url(#paint1_linear_42_1602)"></path><defs><linearGradient id="paint0_linear_42_1602" x1="0" y1="48.86" x2="23.116" y2="-43.0459" gradientUnits="userSpaceOnUse"><stop stop-color="#BA4BE9"></stop><stop offset="1" stop-color="#BA4BE9" stop-opacity="0"></stop></linearGradient><linearGradient id="paint1_linear_42_1602" x1="194.26" y1="0" x2="171.144" y2="91.9059" gradientUnits="userSpaceOnUse"><stop stop-color="#40CFFF"></stop><stop offset="1" stop-color="#7B4AFF" stop-opacity="0"></stop></linearGradient></defs></svg>